<svg width="162" height="121" viewBox="0 0 162 121" fill="none" xmlns="http://www.w3.org/2000/svg">
<g clip-path="url(#clip0_0_265)">
<path d="M143.093 0H18.0577C13.2357 0.0329722 8.63214 1.16369 5.25207 3.14532C1.87199 5.12696 -0.0101012 7.79853 0.0166864 10.5768V19.9325H8.19441V10.6057C8.19409 9.09047 9.22843 7.63601 11.074 6.55654C12.9195 5.47707 15.428 4.85921 18.0577 4.83648H143.093C145.725 4.85671 148.238 5.47347 150.087 6.55321C151.937 7.63294 152.973 9.08884 152.973 10.6057V89.9703H8.1777V74.8071H0V94.7782H161.117V10.6153C161.162 7.83199 159.29 5.15199 155.911 3.16231C152.533 1.17263 147.924 0.0355011 143.093 0Z" fill="#AAAAAA"/>
<path d="M8.19435 27.7119H0.0166092V67.0673H8.19435V27.7119Z" fill="#AAAAAA"/>
<path d="M34.0289 116.193H28.0876V98.3467H19.9099V121.001H39.7032L54.106 98.3467L45.3776 98.366L34.0289 116.193Z" fill="#AAAAAA"/>
<path d="M133.046 116.193H127.105L115.756 98.3467H107.028L121.431 121.001H141.224V98.3467H133.063L133.046 116.193Z" fill="#AAAAAA"/>
<path d="M56.6265 47.3939C56.7251 50.11 58.213 52.749 60.9037 54.9795C63.5945 57.2105 67.368 58.9339 71.7524 59.9341C76.1361 60.9346 80.9346 61.1668 85.547 60.6022C90.1595 60.0377 94.3793 58.7014 97.6789 56.7609C100.978 54.8199 103.21 52.3614 104.094 49.6929C104.979 47.0249 104.476 44.2653 102.65 41.761C100.823 39.2563 97.754 37.1182 93.8272 35.6145C89.9003 34.1107 85.2904 33.3082 80.5756 33.3076C74.1617 33.3533 68.04 34.8612 63.5517 37.5013C59.0631 40.1415 56.573 43.6985 56.6265 47.3939ZM78.1222 36.2884V45.4708H83.0289V36.2884C87.826 36.6474 92.2065 38.0448 95.28 40.1971C98.3534 42.3494 99.8905 45.0949 99.5782 47.8761C99.2658 50.6575 97.1281 53.2662 93.5984 55.1724C90.0694 57.0785 85.4129 58.1391 80.5756 58.1391C75.7376 58.1391 71.0817 57.0785 67.5521 55.1724C64.023 53.2662 61.8851 50.6575 61.5728 47.8761C61.2606 45.0949 62.7973 42.3494 65.8711 40.1971C68.9446 38.0448 73.3251 36.6474 78.1222 36.2884Z" fill="#AAAAAA"/>
<path d="M83.0289 23.7017H78.1222V29.2016H83.0289V23.7017Z" fill="#AAAAAA"/>
<path d="M69.1099 24.6357L64.5033 25.6165L67.6907 30.7895L72.2974 29.7992L69.1099 24.6357Z" fill="#AAAAAA"/>
<path d="M52.8042 30.164L58.829 34.3852L62.5841 32.5294L56.576 28.3179L52.8042 30.164Z" fill="#AAAAAA"/>
<path d="M44.4765 36.7892L52.5707 39.5393L55.024 37.0488L46.9297 34.2988L44.4765 36.7892Z" fill="#AAAAAA"/>
<path d="M40.4881 44.6927L49.7005 45.6542L50.5517 42.8081L41.3393 41.856L40.4881 44.6927Z" fill="#AAAAAA"/>
<path d="M40.4881 50.0866L41.3393 52.9229L50.5517 51.9711L49.7005 49.125L40.4881 50.0866Z" fill="#AAAAAA"/>
<path d="M55.024 57.7311L52.5707 55.2407L44.4765 57.9908L46.9131 60.4812L55.024 57.7311Z" fill="#AAAAAA"/>
<path d="M62.5674 62.2498L58.8123 60.4038L52.8042 64.6154L56.5593 66.4712L62.5674 62.2498Z" fill="#AAAAAA"/>
<path d="M69.1099 70.1447L72.2974 64.9814L67.6914 63.9907L64.4868 69.1639L69.1099 70.1447Z" fill="#AAAAAA"/>
<path d="M83.0289 65.5864H78.1222V71.0863H83.0289V65.5864Z" fill="#AAAAAA"/>
<path d="M92.0406 70.1447L96.6472 69.1639L93.4591 63.9907L88.8531 64.9814L92.0406 70.1447Z" fill="#AAAAAA"/>
<path d="M98.566 62.2596L104.591 66.4712L108.346 64.6154L102.321 60.4038L98.566 62.2596Z" fill="#AAAAAA"/>
<path d="M116.674 57.9908L108.58 55.2407L106.127 57.7409L114.221 60.4906L116.674 57.9908Z" fill="#AAAAAA"/>
<path d="M120.663 50.087L111.45 49.1353L110.599 51.9716L119.811 52.9237L120.663 50.087Z" fill="#AAAAAA"/>
<path d="M119.811 41.856L110.599 42.8175L111.45 45.6542L120.663 44.7021L119.811 41.856Z" fill="#AAAAAA"/>
<path d="M106.127 37.0488L108.58 39.5487L116.691 36.7988L114.238 34.2988L106.127 37.0488Z" fill="#AAAAAA"/>
<path d="M98.5828 32.5294L102.338 34.3852L108.346 30.1736L104.591 28.3179L98.5828 32.5294Z" fill="#AAAAAA"/>
<path d="M92.0575 24.6357L88.8531 29.8088L93.4591 30.7895L96.6635 25.6261L92.0575 24.6357Z" fill="#AAAAAA"/>
</g>
<defs>
<clipPath id="clip0_0_265">
<rect width="162" height="121" fill="white"/>
</clipPath>
</defs>
</svg>
