<svg width="800" height="235" viewBox="0 0 800 235" fill="none" xmlns="http://www.w3.org/2000/svg">
<path d="M145.139 92.9452L147.204 96.6111L148.222 96.0138L146.137 92.3124L147.464 92.6631L147.758 91.5033L144.511 90.6445L143.668 93.966L144.804 94.2662L145.139 92.9452Z" fill="#AAAAAA"/>
<path d="M140.392 95.7753L142.458 99.4411L143.475 98.8439L141.389 95.1424L142.717 95.4932L143.011 94.3334L139.764 93.4746L138.921 96.796L140.057 97.0962L140.392 95.7753Z" fill="#AAAAAA"/>
<path d="M142.658 102.51L150.933 97.5627L150.34 96.5293L142.065 101.476L142.658 102.51Z" fill="#AAAAAA"/>
<path d="M145.513 108.492L159.676 99.7852L140.345 67L121.884 78.35L139.289 107.869C135.139 108.979 132.226 113.002 132.576 117.518C132.951 122.341 136.915 126.012 141.574 126.012C141.812 126.012 142.053 126.003 142.296 125.983C147.261 125.58 150.979 121.128 150.585 116.059C150.324 112.682 148.301 109.875 145.513 108.492ZM139.678 69.7415L156.992 99.1041L143.03 107.687C142.497 107.599 141.951 107.557 141.395 107.569L124.568 79.0311L139.678 69.7415ZM142.141 123.992C138.249 124.31 134.835 121.333 134.526 117.36C134.217 113.389 137.131 109.9 141.021 109.585C141.212 109.569 141.403 109.561 141.593 109.561C143.272 109.561 144.881 110.165 146.173 111.291C147.611 112.543 148.486 114.293 148.635 116.217C148.944 120.188 146.031 123.676 142.141 123.992Z" fill="#AAAAAA"/>
<path d="M141.428 114.827C140.369 114.913 139.576 115.863 139.659 116.944C139.739 117.973 140.585 118.757 141.58 118.757C141.631 118.757 141.682 118.755 141.733 118.75C142.793 118.664 143.586 117.715 143.502 116.633C143.418 115.551 142.484 114.738 141.428 114.827ZM141.641 117.557C141.23 117.594 140.863 117.273 140.829 116.85C140.796 116.427 141.107 116.055 141.522 116.022C141.541 116.02 141.562 116.019 141.582 116.019C141.97 116.019 142.301 116.326 142.333 116.729C142.365 117.151 142.055 117.523 141.641 117.557Z" fill="#AAAAAA"/>
<path d="M134.718 108.557L135.346 108.011L114.019 71.3511C112.967 69.5442 111.115 68.3805 109.062 68.2367L104.134 67.8906L104 69.8832L108.928 70.2292C110.34 70.328 111.615 71.1291 112.337 72.3719L132.837 107.609C130.18 110.254 128.785 114.003 129.08 117.801L131.03 117.643C130.762 114.199 132.141 110.802 134.718 108.557Z" fill="#AAAAAA"/>
<path d="M161.449 102.932L150.133 109.826L151.269 111.46L162.45 104.647L161.449 102.932Z" fill="#AAAAAA"/>
<path d="M92.3262 158.232H88.7461V162H87.6211V153.469H92.9062V154.395H88.7461V157.312H92.3262V158.232ZM98.1328 158.549H96.1289V162H94.998V153.469H97.8223C98.7832 153.469 99.5215 153.688 100.037 154.125C100.557 154.562 100.816 155.199 100.816 156.035C100.816 156.566 100.672 157.029 100.383 157.424C100.098 157.818 99.6992 158.113 99.1875 158.309L101.191 161.93V162H99.9844L98.1328 158.549ZM96.1289 157.629H97.8574C98.416 157.629 98.8594 157.484 99.1875 157.195C99.5195 156.906 99.6855 156.52 99.6855 156.035C99.6855 155.508 99.5273 155.104 99.2109 154.822C98.8984 154.541 98.4453 154.398 97.8516 154.395H96.1289V157.629ZM107.971 158.057H104.273V161.08H108.568V162H103.148V153.469H108.51V154.395H104.273V157.137H107.971V158.057ZM115.541 158.057H111.844V161.08H116.139V162H110.719V153.469H116.08V154.395H111.844V157.137H115.541V158.057ZM124.529 158.197C123.564 157.92 122.861 157.58 122.42 157.178C121.982 156.771 121.764 156.271 121.764 155.678C121.764 155.006 122.031 154.451 122.566 154.014C123.105 153.572 123.805 153.352 124.664 153.352C125.25 153.352 125.771 153.465 126.229 153.691C126.689 153.918 127.045 154.23 127.295 154.629C127.549 155.027 127.676 155.463 127.676 155.936H126.545C126.545 155.42 126.381 155.016 126.053 154.723C125.725 154.426 125.262 154.277 124.664 154.277C124.109 154.277 123.676 154.4 123.363 154.646C123.055 154.889 122.9 155.227 122.9 155.66C122.9 156.008 123.047 156.303 123.34 156.545C123.637 156.783 124.139 157.002 124.846 157.201C125.557 157.4 126.111 157.621 126.51 157.863C126.912 158.102 127.209 158.381 127.4 158.701C127.596 159.021 127.693 159.398 127.693 159.832C127.693 160.523 127.424 161.078 126.885 161.496C126.346 161.91 125.625 162.117 124.723 162.117C124.137 162.117 123.59 162.006 123.082 161.783C122.574 161.557 122.182 161.248 121.904 160.857C121.631 160.467 121.494 160.023 121.494 159.527H122.625C122.625 160.043 122.814 160.451 123.193 160.752C123.576 161.049 124.086 161.197 124.723 161.197C125.316 161.197 125.771 161.076 126.088 160.834C126.404 160.592 126.562 160.262 126.562 159.844C126.562 159.426 126.416 159.104 126.123 158.877C125.83 158.646 125.299 158.42 124.529 158.197ZM136.447 162H135.316V158.057H131.016V162H129.891V153.469H131.016V157.137H135.316V153.469H136.447V162ZM140.402 162H139.277V153.469H140.402V162ZM144.34 158.66V162H143.215V153.469H146.361C147.295 153.469 148.025 153.707 148.553 154.184C149.084 154.66 149.35 155.291 149.35 156.076C149.35 156.904 149.09 157.543 148.57 157.992C148.055 158.438 147.314 158.66 146.35 158.66H144.34ZM144.34 157.74H146.361C146.963 157.74 147.424 157.6 147.744 157.318C148.064 157.033 148.225 156.623 148.225 156.088C148.225 155.58 148.064 155.174 147.744 154.869C147.424 154.564 146.984 154.406 146.426 154.395H144.34V157.74ZM152.66 158.66V162H151.535V153.469H154.682C155.615 153.469 156.346 153.707 156.873 154.184C157.404 154.66 157.67 155.291 157.67 156.076C157.67 156.904 157.41 157.543 156.891 157.992C156.375 158.438 155.635 158.66 154.67 158.66H152.66ZM152.66 157.74H154.682C155.283 157.74 155.744 157.6 156.064 157.318C156.385 157.033 156.545 156.623 156.545 156.088C156.545 155.58 156.385 155.174 156.064 154.869C155.744 154.564 155.305 154.406 154.746 154.395H152.66V157.74ZM161.062 162H159.938V153.469H161.062V162ZM170.432 162H169.301L165.006 155.426V162H163.875V153.469H165.006L169.312 160.072V153.469H170.432V162ZM179.479 160.881C179.189 161.295 178.785 161.605 178.266 161.812C177.75 162.016 177.148 162.117 176.461 162.117C175.766 162.117 175.148 161.955 174.609 161.631C174.07 161.303 173.652 160.838 173.355 160.236C173.062 159.635 172.912 158.938 172.904 158.145V157.4C172.904 156.115 173.203 155.119 173.801 154.412C174.402 153.705 175.246 153.352 176.332 153.352C177.223 153.352 177.939 153.58 178.482 154.037C179.025 154.49 179.357 155.135 179.479 155.971H178.354C178.143 154.842 177.471 154.277 176.338 154.277C175.584 154.277 175.012 154.543 174.621 155.074C174.234 155.602 174.039 156.367 174.035 157.371V158.068C174.035 159.025 174.254 159.787 174.691 160.354C175.129 160.916 175.721 161.197 176.467 161.197C176.889 161.197 177.258 161.15 177.574 161.057C177.891 160.963 178.152 160.805 178.359 160.582V158.666H176.385V157.752H179.479V160.881Z" fill="#1A1A1A"/>
<path d="M682.854 91.3236L676.136 91.3227L640.075 91.32C638.355 91.32 636.955 89.8905 636.955 88.1334C636.955 86.3762 638.354 84.9467 640.076 84.9467L680.584 84.9494V82.9553L640.076 82.9526C637.279 82.9526 635.003 85.276 635.002 88.1325L635 123.815C635 125.393 636.256 126.676 637.802 126.676L682.853 126.68C684.398 126.68 685.655 125.396 685.655 123.82L685.657 103.024L685.658 94.1837C685.656 92.6069 684.399 91.3236 682.854 91.3236ZM683.701 123.82C683.701 124.297 683.32 124.687 682.852 124.687L637.801 124.683C637.333 124.683 636.952 124.293 636.952 123.816L636.954 92.2085C637.584 92.7128 638.331 93.0673 639.148 93.2225V93.3132H640.074L676.135 93.3159L682.853 93.3168C683.322 93.3168 683.702 93.7062 683.702 94.1837L683.701 103.024V123.82Z" fill="#AAAAAA"/>
<path d="M682.682 87.1577H641.507V88.3539H682.682V87.1577Z" fill="#AAAAAA"/>
<path d="M694.144 73.3743C688.014 67.114 678.247 66.7837 671.728 72.3763L672.375 67.2549L670.439 67L669.348 75.6357L677.805 76.7485L678.055 74.7715L672.784 74.0778C678.535 68.9635 687.292 69.196 692.764 74.7841C698.477 80.619 698.476 90.1118 692.762 95.9458L694.143 97.3556C700.618 90.7444 700.619 79.9863 694.144 73.3743Z" fill="#AAAAAA"/>
<path d="M626.574 158.232H622.994V162H621.869V153.469H627.154V154.395H622.994V157.312H626.574V158.232ZM632.381 158.549H630.377V162H629.246V153.469H632.07C633.031 153.469 633.77 153.688 634.285 154.125C634.805 154.562 635.064 155.199 635.064 156.035C635.064 156.566 634.92 157.029 634.631 157.424C634.346 157.818 633.947 158.113 633.436 158.309L635.439 161.93V162H634.232L632.381 158.549ZM630.377 157.629H632.105C632.664 157.629 633.107 157.484 633.436 157.195C633.768 156.906 633.934 156.52 633.934 156.035C633.934 155.508 633.775 155.104 633.459 154.822C633.146 154.541 632.693 154.398 632.1 154.395H630.377V157.629ZM642.219 158.057H638.521V161.08H642.816V162H637.396V153.469H642.758V154.395H638.521V157.137H642.219V158.057ZM649.789 158.057H646.092V161.08H650.387V162H644.967V153.469H650.328V154.395H646.092V157.137H649.789V158.057ZM659.393 158.549H657.389V162H656.258V153.469H659.082C660.043 153.469 660.781 153.688 661.297 154.125C661.816 154.562 662.076 155.199 662.076 156.035C662.076 156.566 661.932 157.029 661.643 157.424C661.357 157.818 660.959 158.113 660.447 158.309L662.451 161.93V162H661.244L659.393 158.549ZM657.389 157.629H659.117C659.676 157.629 660.119 157.484 660.447 157.195C660.779 156.906 660.945 156.52 660.945 156.035C660.945 155.508 660.787 155.104 660.471 154.822C660.158 154.541 659.705 154.398 659.111 154.395H657.389V157.629ZM669.23 158.057H665.533V161.08H669.828V162H664.408V153.469H669.77V154.395H665.533V157.137H669.23V158.057ZM677.99 154.395H675.248V162H674.129V154.395H671.393V153.469H677.99V154.395ZM686.012 153.469V159.27C686.008 160.074 685.754 160.732 685.25 161.244C684.75 161.756 684.07 162.043 683.211 162.105L682.912 162.117C681.979 162.117 681.234 161.865 680.68 161.361C680.125 160.857 679.844 160.164 679.836 159.281V153.469H680.949V159.246C680.949 159.863 681.119 160.344 681.459 160.688C681.799 161.027 682.283 161.197 682.912 161.197C683.549 161.197 684.035 161.027 684.371 160.688C684.711 160.348 684.881 159.869 684.881 159.252V153.469H686.012ZM691.666 158.549H689.662V162H688.531V153.469H691.355C692.316 153.469 693.055 153.688 693.57 154.125C694.09 154.562 694.35 155.199 694.35 156.035C694.35 156.566 694.205 157.029 693.916 157.424C693.631 157.818 693.232 158.113 692.721 158.309L694.725 161.93V162H693.518L691.666 158.549ZM689.662 157.629H691.391C691.949 157.629 692.393 157.484 692.721 157.195C693.053 156.906 693.219 156.52 693.219 156.035C693.219 155.508 693.061 155.104 692.744 154.822C692.432 154.541 691.979 154.398 691.385 154.395H689.662V157.629ZM703.238 162H702.107L697.812 155.426V162H696.682V153.469H697.812L702.119 160.072V153.469H703.238V162ZM708.5 158.197C707.535 157.92 706.832 157.58 706.391 157.178C705.953 156.771 705.734 156.271 705.734 155.678C705.734 155.006 706.002 154.451 706.537 154.014C707.076 153.572 707.775 153.352 708.635 153.352C709.221 153.352 709.742 153.465 710.199 153.691C710.66 153.918 711.016 154.23 711.266 154.629C711.52 155.027 711.646 155.463 711.646 155.936H710.516C710.516 155.42 710.352 155.016 710.023 154.723C709.695 154.426 709.232 154.277 708.635 154.277C708.08 154.277 707.646 154.4 707.334 154.646C707.025 154.889 706.871 155.227 706.871 155.66C706.871 156.008 707.018 156.303 707.311 156.545C707.607 156.783 708.109 157.002 708.816 157.201C709.527 157.4 710.082 157.621 710.48 157.863C710.883 158.102 711.18 158.381 711.371 158.701C711.566 159.021 711.664 159.398 711.664 159.832C711.664 160.523 711.395 161.078 710.855 161.496C710.316 161.91 709.596 162.117 708.693 162.117C708.107 162.117 707.561 162.006 707.053 161.783C706.545 161.557 706.152 161.248 705.875 160.857C705.602 160.467 705.465 160.023 705.465 159.527H706.596C706.596 160.043 706.785 160.451 707.164 160.752C707.547 161.049 708.057 161.197 708.693 161.197C709.287 161.197 709.742 161.076 710.059 160.834C710.375 160.592 710.533 160.262 710.533 159.844C710.533 159.426 710.387 159.104 710.094 158.877C709.801 158.646 709.27 158.42 708.5 158.197Z" fill="#1A1A1A"/>
<path d="M362.006 158.66V162H360.881V153.469H364.027C364.961 153.469 365.691 153.707 366.219 154.184C366.75 154.66 367.016 155.291 367.016 156.076C367.016 156.904 366.756 157.543 366.236 157.992C365.721 158.438 364.98 158.66 364.016 158.66H362.006ZM362.006 157.74H364.027C364.629 157.74 365.09 157.6 365.41 157.318C365.73 157.033 365.891 156.623 365.891 156.088C365.891 155.58 365.73 155.174 365.41 154.869C365.09 154.564 364.65 154.406 364.092 154.395H362.006V157.74ZM370.332 161.08H374.375V162H369.201V153.469H370.332V161.08ZM382.098 153.469V159.27C382.094 160.074 381.84 160.732 381.336 161.244C380.836 161.756 380.156 162.043 379.297 162.105L378.998 162.117C378.064 162.117 377.32 161.865 376.766 161.361C376.211 160.857 375.93 160.164 375.922 159.281V153.469H377.035V159.246C377.035 159.863 377.205 160.344 377.545 160.688C377.885 161.027 378.369 161.197 378.998 161.197C379.635 161.197 380.121 161.027 380.457 160.688C380.797 160.348 380.967 159.869 380.967 159.252V153.469H382.098ZM390.922 160.881C390.633 161.295 390.229 161.605 389.709 161.812C389.193 162.016 388.592 162.117 387.904 162.117C387.209 162.117 386.592 161.955 386.053 161.631C385.514 161.303 385.096 160.838 384.799 160.236C384.506 159.635 384.355 158.938 384.348 158.145V157.4C384.348 156.115 384.646 155.119 385.244 154.412C385.846 153.705 386.689 153.352 387.775 153.352C388.666 153.352 389.383 153.58 389.926 154.037C390.469 154.49 390.801 155.135 390.922 155.971H389.797C389.586 154.842 388.914 154.277 387.781 154.277C387.027 154.277 386.455 154.543 386.064 155.074C385.678 155.602 385.482 156.367 385.479 157.371V158.068C385.479 159.025 385.697 159.787 386.135 160.354C386.572 160.916 387.164 161.197 387.91 161.197C388.332 161.197 388.701 161.15 389.018 161.057C389.334 160.963 389.596 160.805 389.803 160.582V158.666H387.828V157.752H390.922V160.881ZM396.881 159.709C396.881 159.299 396.994 158.922 397.221 158.578C397.451 158.234 397.889 157.834 398.533 157.377C398.154 156.916 397.9 156.545 397.771 156.264C397.643 155.982 397.578 155.703 397.578 155.426C397.578 154.777 397.77 154.27 398.152 153.902C398.535 153.535 399.055 153.352 399.711 153.352C400.297 153.352 400.781 153.523 401.164 153.867C401.547 154.207 401.738 154.637 401.738 155.156C401.738 155.5 401.65 155.818 401.475 156.111C401.303 156.4 401 156.705 400.566 157.025L399.939 157.488L401.838 159.756C402.104 159.248 402.236 158.684 402.236 158.062H403.215C403.215 159.059 402.975 159.885 402.494 160.541L403.713 162H402.412L401.844 161.326C401.555 161.584 401.215 161.781 400.824 161.918C400.438 162.051 400.043 162.117 399.641 162.117C398.809 162.117 398.141 161.896 397.637 161.455C397.133 161.014 396.881 160.432 396.881 159.709ZM399.641 161.232C400.215 161.232 400.74 161.014 401.217 160.576L399.137 158.086L398.943 158.227C398.291 158.707 397.965 159.201 397.965 159.709C397.965 160.17 398.113 160.539 398.41 160.816C398.711 161.094 399.121 161.232 399.641 161.232ZM398.662 155.391C398.662 155.766 398.893 156.234 399.354 156.797L400.045 156.311C400.311 156.123 400.492 155.945 400.59 155.777C400.688 155.605 400.736 155.398 400.736 155.156C400.736 154.895 400.639 154.678 400.443 154.506C400.248 154.33 400.002 154.242 399.705 154.242C399.385 154.242 399.131 154.352 398.943 154.57C398.756 154.785 398.662 155.059 398.662 155.391ZM410.346 158.66V162H409.221V153.469H412.367C413.301 153.469 414.031 153.707 414.559 154.184C415.09 154.66 415.355 155.291 415.355 156.076C415.355 156.904 415.096 157.543 414.576 157.992C414.061 158.438 413.32 158.66 412.355 158.66H410.346ZM410.346 157.74H412.367C412.969 157.74 413.43 157.6 413.75 157.318C414.07 157.033 414.23 156.623 414.23 156.088C414.23 155.58 414.07 155.174 413.75 154.869C413.43 154.564 412.99 154.406 412.432 154.395H410.346V157.74ZM418.672 161.08H422.715V162H417.541V153.469H418.672V161.08ZM429.576 159.773H426.002L425.199 162H424.039L427.297 153.469H428.281L431.545 162H430.391L429.576 159.773ZM426.342 158.848H429.242L427.789 154.857L426.342 158.848ZM435.494 157.752L437.721 153.469H438.998L436.057 158.818V162H434.932V158.818L431.99 153.469H433.279L435.494 157.752Z" fill="#1A1A1A"/>
<g clip-path="url(#clip0_1_367)">
<path d="M431.85 97.8125C431.856 97.0136 431.457 96.2913 430.783 95.8799L430.376 95.6315C431.066 93.6784 432.47 86.9868 423.498 78.8346C418.686 74.4614 411.366 71.8288 402.888 71.4216C395.221 71.0503 387.275 72.51 381.076 75.4175C373.334 79.0488 368.329 85.0046 368.016 90.9604C367.818 94.7224 369.395 100.309 378.036 105.565C383.07 108.628 389 109.776 394.631 109.776C398.358 109.776 401.952 109.273 405.068 108.49L405.066 109.139L401.285 111.331C400.185 111.977 399.326 113.49 399.33 114.777C399.332 115.505 399.617 116.089 400.11 116.377C400.328 116.504 400.573 116.568 400.834 116.568C401.168 116.568 401.525 116.464 401.876 116.257L405.187 114.337C405.278 114.601 405.414 114.845 405.589 115.06C404.896 115.817 404.422 116.896 404.425 117.851C404.426 118.579 404.712 119.162 405.205 119.451C405.423 119.579 405.668 119.642 405.929 119.642C406.263 119.642 406.619 119.538 406.971 119.332L409.72 117.738L415.563 121.299C415.931 121.524 416.338 121.637 416.746 121.637C417.134 121.637 417.522 121.535 417.878 121.33C417.981 121.271 418.076 121.204 418.167 121.132L430.106 113.15C431.187 112.495 431.855 111.297 431.851 110.017L431.814 98.1975C431.834 98.0712 431.85 97.944 431.85 97.8125ZM418.08 104.898C417.888 104.703 417.674 104.528 417.437 104.384L409.308 99.4311L419.815 93.1141C420.645 92.6199 421.675 92.625 422.5 93.1295L429.784 97.5735C429.888 97.6366 429.909 97.7306 429.909 97.7989C429.909 97.8671 429.885 97.9602 429.783 98.0208L418.08 104.898ZM379.032 103.869C372.851 100.109 369.713 95.681 369.955 91.0654C370.229 85.8429 374.803 80.535 381.889 77.211C393.646 71.6974 412.651 71.6256 422.205 80.3071C429.816 87.2232 429.207 92.6976 428.67 94.5901L423.499 91.435C422.634 90.9066 421.64 90.6992 420.669 90.8025C418.888 85.3247 412.508 79.5457 401.992 78.6877C398.313 78.3873 394.382 78.7219 390.307 79.6814C387.116 80.4326 385.374 81.322 383.441 82.6034L384.502 84.2577C386.294 83.0695 387.82 82.2944 390.745 81.6055C394.624 80.6921 398.355 80.3728 401.837 80.6571C411.461 81.4416 417.249 86.5693 418.823 91.4145L406.401 98.8821C406.353 98.9052 406.305 98.9257 406.258 98.9521C405.527 99.3712 405.09 100.131 405.088 100.984L405.073 106.45C397.607 108.433 387.064 108.754 379.032 103.869ZM401.295 115.228C401.045 115.374 400.814 115.42 400.691 115.349C400.57 115.278 400.494 115.057 400.494 114.772C400.491 113.9 401.12 112.793 401.864 112.357L408.993 108.224L409 110.761L401.295 115.228ZM406.39 118.304C406.14 118.45 405.908 118.496 405.785 118.424C405.665 118.354 405.589 118.132 405.588 117.848C405.586 116.977 406.215 115.869 406.959 115.433L414.088 111.3L414.095 113.837L406.39 118.304ZM411.656 116.616L414.968 114.696C415.15 114.59 415.263 114.393 415.262 114.179L415.252 110.28C415.251 110.069 415.14 109.874 414.961 109.769C414.782 109.663 414.561 109.662 414.38 109.767L407.224 113.915L407.17 113.883C407.062 113.817 406.995 113.697 406.995 113.566V113.29L409.873 111.622C410.055 111.516 410.168 111.319 410.167 111.105L410.157 107.206C410.156 106.995 410.045 106.8 409.866 106.695C409.687 106.589 409.466 106.588 409.285 106.693L407.011 108.011L407.03 100.991C407.03 100.806 407.145 100.713 407.212 100.674C407.28 100.635 407.417 100.583 407.575 100.679L416.438 106.078C416.871 106.343 417.14 106.827 417.139 107.341L417.105 119.292C417.105 119.415 417.054 119.495 417 119.548L416.876 119.63C416.801 119.661 416.688 119.682 416.56 119.604L411.656 116.616ZM429.1 111.458L419.052 118.176L419.081 107.346C419.082 107.104 419.052 106.868 419.003 106.637L429.877 100.248L429.908 110.022C429.909 110.611 429.6 111.161 429.1 111.458Z" fill="#AAAAAA"/>
</g>
<defs>
<clipPath id="clip0_1_367">
<rect width="64" height="51" fill="white" transform="translate(368 71)"/>
</clipPath>
</defs>
</svg>
